<?xml version="1.0" encoding="UTF-8" standalone="no"?>
<svg width="67px" height="47px" viewBox="0 0 67 47" version="1.1" xmlns="http://www.w3.org/2000/svg" xmlns:xlink="http://www.w3.org/1999/xlink" xmlns:sketch="http://www.bohemiancoding.com/sketch/ns">
    <!-- Generator: Sketch 3.5.2 (25235) - http://www.bohemiancoding.com/sketch -->
    <title>Group 2</title>
    <desc>Created with Sketch.</desc>
    <defs></defs>
    <g id="US-Web-Standards" stroke="none" stroke-width="1" fill="none" fill-rule="evenodd" sketch:type="MSPage">
        <g id="Artboard-1-Copy-26" sketch:type="MSArtboardGroup" transform="translate(-495.000000, -16.000000)" fill="#FFFFFF">
            <g id="Group-2" sketch:type="MSLayerGroup" transform="translate(495.000000, 16.000000)">
                <path d="M15.1612575,1.7175614 L15.0818204,13.5454825 C15.0818204,18.5212982 12.2240898,20.3971754 8.41391617,20.3971754 C5.08036527,20.3971754 0.873005988,18.9290439 0.873005988,13.7903772 L0.873005988,1.7175614 C0.873005988,1.06492105 0.476221557,0.657175439 0,0.412280702 L5.39771257,0.412280702 C5.00052695,0.657175439 4.52470659,1.06492105 4.52470659,1.7175614 L4.52470659,13.8715965 C4.52470659,15.9111491 5.23883832,18.7657807 8.89013772,18.7657807 C12.2240898,18.7657807 13.4148443,16.4821579 13.4148443,13.627114 L13.4148443,1.7175614 C13.4148443,1.06492105 13.0180599,0.657175439 12.6208743,0.412280702 L15.8753892,0.412280702 C15.4786048,0.657175439 15.1612575,1.06492105 15.1612575,1.7175614" id="Fill-2" sketch:type="MSShapeGroup"></path>
                <path d="M22.8072814,20.3110088 C20.2677006,20.3110088 18.3624132,19.413886 17.4095689,18.9245088 L17.251497,14.0303246 C17.8067545,16.0694649 19.4737305,18.8428772 22.410497,18.8428772 C25.1887904,18.8428772 26.0617964,16.7221053 26.0617964,15.3356053 C26.0617964,12.5617807 23.6012515,12.1540351 21.0612695,10.7671228 C18.4418503,9.29899123 17.3301317,7.74922807 17.3301317,5.54682456 C17.3301317,1.63139474 20.9023952,0 23.4423772,0 C24.3948204,0 26.3001078,0.244894737 27.7287725,1.14201754 L27.8082096,5.3835614 C27.4114251,3.83421053 25.8238862,1.54976316 23.1250299,1.54976316 C20.9818323,1.54976316 20.1878623,3.09952632 20.1878623,4.32317544 C20.1878623,6.11783333 21.3786168,6.77047368 23.9980359,7.99412281 C26.6174551,9.29899123 29.3957485,10.1965263 29.3957485,14.2752193 C29.3957485,17.8641228 26.3001078,20.3110088 22.8072814,20.3110088" id="Fill-3" sketch:type="MSShapeGroup"></path>
                <path d="M38.1157784,20.152693 L30.8922156,20.152693 C31.289,19.8261667 31.6067485,19.4184211 31.6067485,18.8474123 L31.6067485,1.7175614 C31.6067485,1.06492105 31.289,0.657175439 30.8922156,0.412280702 L38.3536886,0.412280702 C47.641012,0.412280702 49.4664611,7.18275439 49.4664611,9.95616667 C49.4664611,15.013614 45.7357246,20.152693 38.1157784,20.152693 L38.1157784,20.152693 Z M37.7980299,1.88082456 C37.0838982,1.88082456 35.6548323,1.88082456 35.1786108,1.96245614 L35.1786108,18.6029298 L37.4806826,18.6029298 C43.8308383,18.6029298 45.5772515,14.1977105 45.5772515,9.95616667 C45.5772515,6.53011404 43.5925269,1.88082456 37.7980299,1.88082456 L37.7980299,1.88082456 Z" id="Fill-4" sketch:type="MSShapeGroup"></path>
                <path d="M60.764988,20.3110088 C61.479521,19.9032632 61.637994,19.4955175 61.479521,18.8424649 C61.4000838,18.5979825 60.6061138,16.8037368 59.8121437,14.8458158 L52.9857665,14.8458158 C52.1127605,16.8037368 51.3982275,18.5163509 51.3982275,18.8424649 C51.1603174,19.4955175 51.2397545,19.9032632 52.0333234,20.3110088 L48.1437126,20.3110088 C48.9376826,19.74 49.175994,19.413886 49.4933413,18.8424649 C49.9695629,17.7820789 57.4310359,0 57.4310359,0 C57.4310359,0 64.892509,17.7820789 65.3687305,18.8424649 C65.686479,19.4955175 65.8453533,19.74 66.7977964,20.3110088 L60.764988,20.3110088 L60.764988,20.3110088 Z M56.3197186,6.28068421 C56.3197186,6.28068421 54.4148323,11.1748684 53.5414251,13.2960526 L59.1774491,13.2960526 C57.9072575,10.1144825 56.3197186,6.28068421 56.3197186,6.28068421 L56.3197186,6.28068421 Z" id="Fill-5" sketch:type="MSShapeGroup"></path>
                <path d="M65.5709341,23.1077854 C65.5709341,23.1077854 24.6114671,22.0473994 0.401197605,35.343452 C0.401197605,35.343452 26.1195689,24.9024433 65.5709341,25.8811976 L65.5709341,23.1077854" id="Fill-6" sketch:type="MSShapeGroup"></path>
                <path d="M0.401197605,23.0877193 C0.401197605,23.0877193 14.2132275,23.1693509 22.786018,26.5137719 C22.786018,26.5137719 5.16421557,24.9635965 0.401197605,25.7795 L0.401197605,23.0877193" id="Fill-7" sketch:type="MSShapeGroup"></path>
                <path d="M0.401197605,27.3518414 C0.401197605,27.3518414 10.2441796,26.9436835 16.1975509,27.5146923 C16.1975509,27.5146923 1.83026347,29.3093501 0.401197605,30.0432098 L0.401197605,27.3518414" id="Fill-8" sketch:type="MSShapeGroup"></path>
                <path d="M58.8235928,28.0713684 L58.5852814,28.0713684 C46.6789401,28.3162632 21.7541377,29.7843947 0.401197605,37.5336228 L0.401197605,46.832614 L65.6499701,46.832614 L65.6499701,28.0713684 C65.6499701,28.0713684 63.109988,27.9897368 58.8235928,28.0713684" id="Fill-9" sketch:type="MSShapeGroup"></path>
            </g>
        </g>
    </g>
</svg>